<?xml version="1.0" standalone="no"?>
<!DOCTYPE svg PUBLIC "-//W3C//DTD SVG 20010904//EN"
 "http://www.w3.org/TR/2001/REC-SVG-20010904/DTD/svg10.dtd">
<svg version="1.0" xmlns="http://www.w3.org/2000/svg"
 width="225.000000pt" height="225.000000pt" viewBox="0 0 225.000000 225.000000"
 preserveAspectRatio="xMidYMid meet">

<g transform="translate(0.000000,225.000000) scale(0.100000,-0.100000)"
fill="#000000" stroke="none">
<path d="M988 2100 c-110 -18 -184 -42 -293 -95 -206 -100 -349 -243 -450
-450 -75 -152 -99 -253 -99 -425 -1 -153 16 -247 67 -370 124 -304 383 -523
702 -596 109 -25 311 -25 420 0 319 73 578 292 702 596 51 123 68 217 67 370
0 172 -24 273 -99 425 -101 207 -244 349 -450 450 -62 31 -147 63 -195 75 -97
23 -286 34 -372 20z m421 -550 c158 -26 249 -121 286 -298 41 -189 -1 -361
-112 -462 -89 -81 -131 -92 -377 -98 l-209 -5 7 24 c4 13 10 47 13 76 l5 52
182 3 c179 3 183 4 223 30 62 41 96 118 101 228 10 201 -49 300 -183 308 l-64
4 6 32 c3 17 7 32 9 34 1 2 -2 17 -7 34 -4 17 -6 35 -3 39 7 12 45 11 123 -1z
m-187 -17 c28 -25 24 -77 -8 -102 -23 -18 -41 -21 -135 -21 l-109 0 0 -326 c0
-214 -4 -332 -11 -346 -15 -29 -72 -50 -103 -39 -55 22 -56 27 -56 383 l0 328
-109 0 c-94 0 -112 3 -135 21 -31 24 -35 72 -9 101 15 17 39 18 336 18 284 0
322 -2 339 -17z"/>
</g>
</svg>
